# 3ds Max Wavefront OBJ Exporter v0.97b - (c)2007 guruware
# File Created: 03.05.2019 21:38:02

#
# object Cube
#

v  3.0876 5.3460 -4.9401
v  -0.0000 7.8569 -4.9401
v  -0.0000 7.8569 4.9401
v  3.0876 5.3460 4.9401
v  -3.0876 4.9350 -4.9401
v  3.0876 4.9103 -4.9401
v  3.0876 -0.2116 -4.9401
v  -3.0876 -0.2116 -4.9401
v  3.1246 5.3460 -4.9401
v  3.1246 5.3460 4.9401
v  3.1246 4.9018 4.9401
v  3.1246 4.9103 -4.9401
v  -0.0000 -0.2116 4.9401
v  -3.0876 -0.2116 4.9401
v  -0.0000 -0.2116 -4.9401
v  3.0876 -0.2116 4.9401
v  -3.0876 4.9352 4.9401
v  -3.0876 5.3460 -4.9401
v  -3.0876 5.3460 4.9401
v  3.0876 4.9018 4.9401
v  -2.7400 5.4695 -4.8784
v  -0.0000 7.6977 -4.8784
v  2.7400 5.4695 -4.8784
v  -2.7400 5.4695 -4.9401
v  2.7400 5.4695 -4.9401
v  -0.0000 7.6977 -4.9401
v  3.0876 5.3460 4.9772
v  -3.0876 5.3460 4.9772
v  -3.0876 4.9352 4.9772
v  3.0876 4.9018 4.9772
v  -3.0876 5.3460 -4.9772
v  3.0876 5.3460 -4.9772
v  3.0876 4.9103 -4.9772
v  -3.0876 4.9350 -4.9772
v  -3.1246 5.3460 4.9401
v  -3.1246 5.3460 -4.9401
v  -3.1246 4.9350 -4.9401
v  -3.1246 4.9352 4.9401
# 38 vertices

vn 0.6309 0.7758 -0.0000
vn -0.5794 -0.5770 -0.5756
vn 0.5753 -0.5776 -0.5791
vn 0.0000 0.0000 -1.0000
vn 0.5774 0.5774 -0.5774
vn 0.5774 0.5774 0.5774
vn 0.5773 -0.5776 0.5771
vn 0.5774 -0.5771 -0.5776
vn 0.0000 -1.0000 -0.0000
vn -0.5773 -0.5773 0.5774
vn -0.5774 -0.5774 -0.5773
vn -1.0000 0.0000 -0.0000
vn -0.6309 0.7758 -0.0000
vn 0.0000 0.0000 1.0000
vn 0.5746 -0.5776 0.5798
vn -0.5801 -0.5770 0.5750
vn 0.7904 0.2808 -0.5445
vn 0.0000 -0.8082 -0.5889
vn -0.7904 0.2808 -0.5445
vn 0.1739 0.0618 -0.9828
vn -0.1739 0.0618 -0.9828
vn -0.0000 -0.4757 -0.8796
vn 0.5770 -0.5773 -0.5778
vn 0.5777 -0.5774 0.5769
vn 1.0000 0.0000 -0.0000
vn -0.5774 0.5774 0.5774
vn -0.5788 -0.5756 0.5777
vn 0.5759 -0.5790 0.5771
vn -0.5774 0.5774 -0.5774
vn 0.5763 -0.5785 -0.5772
vn -0.5784 -0.5761 -0.5776
vn -0.5773 -0.5774 -0.5773
vn 0.7071 0.7071 -0.0000
vn -0.7071 0.7071 -0.0000
vn 0.0000 0.7071 0.7071
vn 0.0000 0.7071 -0.7071
# 36 vertex normals

vt 0.4647 0.7836 0.0000
vt 0.4647 0.9181 0.0000
vt 0.0408 0.9181 0.0000
vt 0.0408 0.7836 0.0000
vt 0.8079 0.6230 0.0000
vt 0.5429 0.6217 0.0000
vt 0.5429 0.3473 0.0000
vt 0.8079 0.3473 0.0000
vt 0.8478 0.2984 0.0000
vt 0.4238 0.2984 0.0000
vt 0.4238 0.2746 0.0000
vt 0.8478 0.2751 0.0000
vt 0.9946 0.9885 0.0000
vt 0.8621 0.9885 0.0000
vt 0.8621 0.4591 0.0000
vt 0.9946 0.4591 0.0000
vt 0.9941 0.5307 0.0000
vt 0.8616 0.5307 0.0000
vt 0.8616 0.0014 0.0000
vt 0.9941 0.0014 0.0000
vt 0.4237 0.2764 0.0000
vt -0.0003 0.2764 0.0000
vt -0.0003 0.0007 0.0000
vt 0.4237 0.0007 0.0000
vt 0.0406 0.9183 0.0000
vt 0.0406 0.7838 0.0000
vt 0.4645 0.7838 0.0000
vt 0.4645 0.9183 0.0000
vt 0.5415 0.6863 0.0000
vt 0.8065 0.6863 0.0000
vt 0.8065 0.9603 0.0000
vt 0.5415 0.9621 0.0000
vt 0.3629 0.4895 0.0000
vt 0.2304 0.6240 0.0000
vt 0.0979 0.4895 0.0000
vt 0.3484 0.4953 0.0000
vt 0.2312 0.6161 0.0000
vt 0.1139 0.4953 0.0000
vt 0.0987 0.4901 0.0000
vt 0.3636 0.4901 0.0000
vt 0.2312 0.6247 0.0000
vt 0.4238 0.0007 0.0000
vt 0.8478 0.0007 0.0000
vt 0.8065 0.9841 0.0000
vt 0.5415 0.9841 0.0000
vt 0.8079 0.6450 0.0000
vt 0.5429 0.6450 0.0000
vt 0.4237 0.2984 0.0000
vt -0.0003 0.2984 0.0000
# 49 texture coords

o Cube
g Cube
s 1
f 1/1/1 2/2/1 3/3/1 
f 4/4/1 1/1/1 3/3/1 
f 5/5/2 6/6/3 7/7/4 
f 8/8/4 5/5/2 7/7/4 
f 9/9/5 10/10/6 11/11/7 
f 12/12/8 9/9/5 11/11/7 
f 13/13/9 14/14/9 8/15/9 
f 15/16/9 13/13/9 8/15/9 
f 16/17/9 13/18/9 15/19/9 
f 7/20/9 16/17/9 15/19/9 
f 17/21/10 5/22/11 8/23/12 
f 14/24/12 17/21/10 8/23/12 
f 2/25/13 18/26/13 19/27/13 
f 3/28/13 2/25/13 19/27/13 
f 14/29/14 16/30/14 20/31/15 
f 17/32/16 14/29/14 20/31/15 
f 4/33/14 3/34/14 19/35/14 
f 21/36/17 22/37/18 23/38/19 
f 24/36/20 25/38/21 1/39/4 
f 18/40/4 24/36/20 1/39/4 
f 26/37/22 24/36/20 18/40/4 
f 2/41/4 26/37/22 18/40/4 
f 25/38/21 26/37/22 2/41/4 
f 1/39/4 25/38/21 2/41/4 
f 6/12/23 20/11/24 16/42/25 
f 7/43/25 6/12/23 16/42/25 
f 27/44/6 28/45/26 29/32/27 
f 30/31/28 27/44/6 29/32/27 
f 31/46/29 32/47/5 33/6/30 
f 34/5/31 31/46/29 33/6/30 
f 35/48/26 36/49/29 37/22/32 
f 38/21/10 35/48/26 37/22/32 
f 21/36/17 23/38/19 25/38/21 
f 24/36/20 21/36/17 25/38/21 
f 22/37/18 21/36/17 24/36/20 
f 26/37/22 22/37/18 24/36/20 
f 23/38/19 22/37/18 26/37/22 
f 25/38/21 23/38/19 26/37/22 
f 30/31/28 29/32/27 17/32/16 
f 20/31/15 30/31/28 17/32/16 
f 27/44/6 30/31/28 20/31/15 
f 4/44/33 27/44/6 20/31/15 
f 28/45/26 27/44/6 4/44/33 
f 19/45/34 28/45/26 4/44/33 
f 29/32/27 28/45/26 19/45/34 
f 17/32/16 29/32/27 19/45/34 
f 38/21/10 37/22/32 5/22/11 
f 17/21/10 38/21/10 5/22/11 
f 35/48/26 38/21/10 17/21/10 
f 19/48/35 35/48/26 17/21/10 
f 36/49/29 35/48/26 19/48/35 
f 18/49/36 36/49/29 19/48/35 
f 37/22/32 36/49/29 18/49/36 
f 5/22/11 37/22/32 18/49/36 
f 12/12/8 11/11/7 20/11/24 
f 6/12/23 12/12/8 20/11/24 
f 9/9/5 12/12/8 6/12/23 
f 1/9/36 9/9/5 6/12/23 
f 10/10/6 9/9/5 1/9/36 
f 4/10/35 10/10/6 1/9/36 
f 11/11/7 10/10/6 4/10/35 
f 20/11/24 11/11/7 4/10/35 
f 34/5/31 33/6/30 6/6/3 
f 5/5/2 34/5/31 6/6/3 
f 31/46/29 34/5/31 5/5/2 
f 18/46/34 31/46/29 5/5/2 
f 32/47/5 31/46/29 18/46/34 
f 1/47/33 32/47/5 18/46/34 
f 33/6/30 32/47/5 1/47/33 
f 6/6/3 33/6/30 1/47/33 
# 0 polygons - 70 triangles

